<?xml version="1.0" standalone="no"?>
<!DOCTYPE svg PUBLIC "-//W3C//DTD SVG 20010904//EN"
 "http://www.w3.org/TR/2001/REC-SVG-20010904/DTD/svg10.dtd">
<svg version="1.0" xmlns="http://www.w3.org/2000/svg"
 width="512.000000pt" height="512.000000pt" viewBox="0 0 512.000000 512.000000"
 preserveAspectRatio="xMidYMid meet">
<metadata>
Created by potrace 1.11, written by Peter Selinger 2001-2013
</metadata>
<g transform="translate(0.000000,512.000000) scale(0.100000,-0.100000)"
fill="#000000" stroke="none">
<path d="M2380 4389 c-417 -45 -737 -184 -975 -423 -104 -104 -166 -188 -227
-311 -59 -117 -116 -294 -133 -413 -3 -23 -12 -61 -20 -83 -12 -33 -32 -162
-28 -179 3 -14 36 -240 39 -270 2 -19 7 -55 12 -80 5 -25 8 -62 8 -84 -1 -37
-3 -39 -77 -80 l-75 -41 17 -105 c10 -58 20 -120 23 -137 3 -18 8 -45 11 -60
3 -16 7 -37 9 -48 2 -11 9 -56 16 -100 7 -44 16 -84 21 -89 4 -5 43 -10 85
-10 74 -1 77 -2 81 -26 2 -14 11 -63 19 -110 21 -110 22 -116 34 -175 5 -27
12 -63 15 -80 30 -173 37 -200 59 -220 18 -17 276 -246 300 -266 4 -4 9 -24
11 -44 2 -30 14 -48 66 -102 35 -36 78 -80 95 -98 l31 -32 745 1 c647 1 746 3
760 16 8 8 51 47 95 87 78 71 79 72 77 116 l-2 45 102 81 c57 45 113 89 124
98 12 10 51 40 86 67 l64 49 12 76 c16 105 19 122 25 151 3 14 7 41 9 60 3 19
15 97 27 172 l22 137 51 -1 c111 -2 132 1 133 20 1 9 8 58 17 107 9 50 18 108
21 130 4 22 12 74 20 116 8 42 17 98 21 125 3 27 7 53 8 58 0 6 -43 26 -96 45
-53 19 -95 37 -93 41 2 4 7 31 10 61 3 30 10 81 15 114 5 33 12 83 15 110 4
28 11 68 15 90 11 47 6 216 -8 295 -60 335 -183 582 -391 790 -136 136 -263
219 -446 293 -78 32 -223 73 -302 87 -35 5 -75 12 -90 15 -102 17 -361 25
-463 14z"/>
</g>
</svg>
